<svg width="200" height="200" viewBox="0 0 64 64" xmlns="http://www.w3.org/2000/svg" aria-hidden="true">
  <path d="M36.604 23.043q-.935-.512-2.805-.512h-6.693v7.795h6.525q1.943.001 2.916-.473 1.72-.825 1.721-3.268 0-2.637-1.664-3.542"/><path d="M32.002 2C15.434 2 2 15.432 2 32s13.434 30 30.002 30 30-13.432 30-30-13.432-30-30-30m12.82 44.508h-6.693a21 21 0 0 1-.393-1.555 14 14 0 0 1-.256-2.5l-.041-2.697q-.035-2.775-.959-3.701-.921-.923-3.453-.924h-5.922v11.377H21.18V17.492h13.879q2.976.059 4.578.748c1.602.689 1.975 1.135 2.717 2.027a9 9 0 0 1 1.459 2.441q.536 1.338.537 3.051 0 2.067-1.043 4.064c-1.043 1.997-1.844 2.273-3.445 2.826q2.008.807 2.844 2.293.838 1.486.838 4.537v1.949q0 1.987.16 2.697.24 1.122 1.119 1.652z"/>
</svg>